<svg id="Layer_1" data-name="Layer 1" xmlns="http://www.w3.org/2000/svg" viewBox="0 0 512 512"><title>compass-flat</title><circle cx="256" cy="274.97" r="5.81" transform="translate(-81.07 440.89) rotate(-73.25)" fill="#eedaa6"/><path d="M187.32,272.88c-.47,2.73-1,5.39-1.32,7.92h-.07c-.34-2.53-.71-5-1.21-7.62l-1.82-9.57h-5.46l-1.92,9.27c-.57,2.83-1.11,5.56-1.48,8.05H174c-.37-2.33-.85-5.25-1.35-8l-1.71-9.34h-5.5l5.39,22.71h5.63l2.16-9.77c.54-2.29.91-4.45,1.31-7H180c.27,2.59.64,4.72,1.08,7l1.92,9.77h5.56l5.86-22.71h-5.22Z" fill="#809b52"/><rect y="9.14" width="512" height="493.72" rx="54.99" ry="54.99" transform="translate(512) rotate(90)" fill="#e6d6a6"/><rect x="20.23" y="11.1" width="471.53" height="489.81" rx="43.89" ry="43.89" fill="#809b52"/><path d="M270.63,137.52A15.77,15.77,0,0,0,276,125.9c0-9.43-9-17.1-20-17.1s-20,7.67-20,17.1a15.79,15.79,0,0,0,5.37,11.62,137.87,137.87,0,0,1,29.26,0Z" fill="none"/><path d="M283.4,139.48a24,24,0,0,0,4.31-13.57c0-14.94-14.22-27.1-31.7-27.1s-31.7,12.16-31.7,27.1a24,24,0,0,0,4.31,13.57,138.22,138.22,0,1,0,54.8,0ZM236,125.9c0-9.43,9-17.1,20-17.1s20,7.67,20,17.1a15.77,15.77,0,0,1-5.37,11.62,137.87,137.87,0,0,0-29.26,0A15.79,15.79,0,0,1,236,125.9Zm20,266.75A117.68,117.68,0,1,1,373.7,275,117.81,117.81,0,0,1,256,392.65Z" fill="#eedaa6"/><path d="M256,171.82A103.16,103.16,0,1,0,359.18,275,103.29,103.29,0,0,0,256,171.82Zm-9.4,12.61h6l4.72,8.32a71.51,71.51,0,0,1,3.71,7.79h.07a94.62,94.62,0,0,1-.4-9.51v-6.61h4.72v22.72H260l-4.85-8.76a80.62,80.62,0,0,1-3.94-8h-.13c.17,3,.24,6.24.24,9.94v6.84H246.6Zm-58.06,101.9H183l-1.92-9.77c-.44-2.29-.81-4.41-1.08-7h-.07c-.4,2.56-.77,4.72-1.31,7l-2.16,9.77H170.8l-5.39-22.71h5.5l1.71,9.34c.51,2.73,1,5.66,1.35,8H174c.37-2.49.91-5.22,1.48-8.05l1.92-9.27h5.46l1.82,9.57c.51,2.66.88,5.09,1.21,7.62H186c.34-2.53.85-5.2,1.32-7.92l1.85-9.27h5.22Zm66.12,79.19a14.8,14.8,0,0,1-6.44-1.41l1-4.21a13,13,0,0,0,5.7,1.42c2.36,0,3.61-1,3.61-2.49s-1.08-2.22-3.81-3.17c-3.78-1.35-6.27-3.44-6.27-6.77,0-3.88,3.27-6.81,8.59-6.81a13.33,13.33,0,0,1,5.8,1.14l-1.15,4.11a10.61,10.61,0,0,0-4.72-1.08c-2.22,0-3.3,1-3.3,2.19,0,1.45,1.25,2.09,4.21,3.24,4,1.48,5.86,3.57,5.86,6.81C263.78,362.28,260.89,365.51,254.65,365.51Zm15.9-118-3,30.93L253,305.9l-14.55,27.46,3-30.93,3-30.92L259,244l14.55-27.46Zm61.58,38.81V263.61h14v4.21h-8.86v4.72h8.36v4.18h-8.36v5.39h9.34v4.21Z" fill="#eedaa6"/><path d="M256,157.29A117.68,117.68,0,1,0,373.7,275,117.83,117.83,0,0,0,256,157.29Zm0,220.84A103.16,103.16,0,1,1,359.18,275,103.27,103.27,0,0,1,256,378.13Z" fill="#809b52"/><path d="M244.47,271.5l-3,30.92-3,30.93L253,305.9l14.55-27.45,3-30.93,3-30.93L259,244Zm17.09,5.15a5.81,5.81,0,1,1-3.89-7.24A5.81,5.81,0,0,1,261.56,276.65Z" fill="#809b52"/><polygon points="337.25 282.12 337.25 276.72 345.61 276.72 345.61 272.54 337.25 272.54 337.25 267.83 346.12 267.83 346.12 263.61 332.13 263.61 332.13 286.33 346.59 286.33 346.59 282.12 337.25 282.12" fill="#809b52"/><path d="M251.32,200.3c0-3.71-.07-6.91-.24-9.94h.13a80.62,80.62,0,0,0,3.94,8l4.85,8.76h5.39V184.43h-4.72V191a94.62,94.62,0,0,0,.4,9.51H261a71.51,71.51,0,0,0-3.71-7.79l-4.72-8.32h-6v22.72h4.72Z" fill="#809b52"/><path d="M257.92,351.66c-3-1.15-4.21-1.79-4.21-3.24,0-1.14,1.08-2.19,3.3-2.19a10.61,10.61,0,0,1,4.72,1.08l1.15-4.11a13.33,13.33,0,0,0-5.8-1.14c-5.32,0-8.59,2.93-8.59,6.81,0,3.33,2.49,5.42,6.27,6.77,2.73.94,3.81,1.79,3.81,3.17s-1.25,2.49-3.61,2.49a13,13,0,0,1-5.7-1.42l-1,4.21a14.8,14.8,0,0,0,6.44,1.41c6.24,0,9.13-3.23,9.13-7C263.78,355.23,261.93,353.14,257.92,351.66Z" fill="#809b52"/></svg>